<svg xmlns="http://www.w3.org/2000/svg" viewBox="0 0 100 100" fill="none">
  <defs>
    <linearGradient id="bgGradient" x1="0%" y1="0%" x2="100%" y2="100%">
      <stop offset="0%" style="stop-color:#667eea;stop-opacity:1" />
      <stop offset="100%" style="stop-color:#764ba2;stop-opacity:1" />
    </linearGradient>
  </defs>
  
  <!-- Background circle -->
  <circle cx="50" cy="50" r="45" fill="url(#bgGradient)"/>
  
  <!-- Person -->
  <circle cx="50" cy="35" r="15" fill="white"/>
  
  <!-- Body -->
  <path d="M 25 60 Q 50 45 75 60 L 75 85 Q 50 95 25 85 Z" fill="white"/>
  
  <!-- Blouse -->
  <path d="M 30 55 L 70 55 L 70 75 L 30 75 Z" fill="#f8f9fa"/>
  
  <!-- Eyes -->
  <circle cx="45" cy="32" r="2" fill="#333"/>
  <circle cx="55" cy="32" r="2" fill="#333"/>
  
  <!-- Smile -->
  <path d="M 42 40 Q 50 45 58 40" stroke="#333" stroke-width="1.5" fill="none" stroke-linecap="round"/>
  
  <!-- Hair -->
  <path d="M 35 25 Q 50 20 65 25 Q 60 30 50 28 Q 40 30 35 25" fill="#8B4513"/>
  
  <!-- Glasses -->
  <circle cx="45" cy="32" r="6" fill="none" stroke="#333" stroke-width="1"/>
  <circle cx="55" cy="32" r="6" fill="none" stroke="#333" stroke-width="1"/>
  <line x1="51" y1="32" x2="49" y2="32" stroke="#333" stroke-width="1"/>
</svg> 