<svg xmlns="http://www.w3.org/2000/svg" viewBox="0 0 100 100" fill="none">
  <defs>
    <linearGradient id="bgGradient" x1="0%" y1="0%" x2="100%" y2="100%">
      <stop offset="0%" style="stop-color:#667eea;stop-opacity:1" />
      <stop offset="100%" style="stop-color:#764ba2;stop-opacity:1" />
    </linearGradient>
  </defs>
  
  <!-- Background circle -->
  <circle cx="50" cy="50" r="45" fill="url(#bgGradient)"/>
  
  <!-- Person -->
  <circle cx="50" cy="35" r="15" fill="white"/>
  
  <!-- Body -->
  <path d="M 25 60 Q 50 45 75 60 L 75 85 Q 50 95 25 85 Z" fill="white"/>
  
  <!-- Hoodie -->
  <path d="M 20 55 L 80 55 L 80 75 L 20 75 Z" fill="#2c3e50"/>
  <path d="M 20 55 Q 50 45 80 55" fill="#2c3e50"/>
  
  <!-- Eyes -->
  <circle cx="45" cy="32" r="2" fill="#333"/>
  <circle cx="55" cy="32" r="2" fill="#333"/>
  
  <!-- Serious expression -->
  <line x1="42" y1="40" x2="58" y2="40" stroke="#333" stroke-width="1.5" stroke-linecap="round"/>
  
  <!-- Hair -->
  <path d="M 35 25 Q 50 20 65 25 Q 60 30 50 28 Q 40 30 35 25" fill="#333"/>
  
  <!-- Hoodie strings -->
  <line x1="25" y1="50" x2="25" y2="60" stroke="#ecf0f1" stroke-width="2" stroke-linecap="round"/>
  <line x1="75" y1="50" x2="75" y2="60" stroke="#ecf0f1" stroke-width="2" stroke-linecap="round"/>
</svg> 